<svg width="58" height="63" viewBox="0 0 58 63" fill="none" xmlns="http://www.w3.org/2000/svg">
<path d="M50.2939 0C50.2939 0 48.4959 9.70892 46.0586 15.4853C43.5087 21.5289 37.4557 29.9118 37.4557 29.9118L-0.000180598 29.9118C-0.000180598 29.9118 5.89607 21.5169 8.33805 15.4853C10.6809 9.69855 12.3086 -1.66039e-06 12.3086 -1.66039e-06L50.2939 0Z" fill="#61072B"/>
<path d="M50.2939 63C50.2939 63 48.4959 53.2911 46.0587 47.5147C43.5087 41.4711 37.4557 33.0882 37.4557 33.0882L-0.000177983 33.0882C-0.000177983 33.0882 5.89607 41.4831 8.33806 47.5147C10.6809 53.3014 12.3086 63 12.3086 63L50.2939 63Z" fill="#61072B"/>
<path d="M57.7058 6.88232C57.7058 6.88232 55.9808 14.6677 53.2058 18.7941C50.1614 23.3212 42.7499 28.0588 42.7499 28.0588C42.7499 28.0588 46.2119 22.5709 47.9117 18.7941C49.9241 14.3226 51.8823 6.88232 51.8823 6.88232L57.7058 6.88232Z" fill="#61072B"/>
<path d="M57.7058 56.1177C57.7058 56.1177 55.9808 48.3323 53.2058 44.2059C50.1614 39.6788 42.7499 34.9412 42.7499 34.9412C42.7499 34.9412 46.2119 40.4291 47.9117 44.2059C49.9241 48.6774 51.8823 56.1177 51.8823 56.1177L57.7058 56.1177Z" fill="#61072B"/>
</svg>
