<svg width="41" height="41" viewBox="0 0 41 41" fill="none" xmlns="http://www.w3.org/2000/svg">
<path d="M20.5 0C9.17826 0 0 9.17826 0 20.5C0 30.1137 6.61904 38.1808 15.548 40.3965V26.7648H11.3209V20.5H15.548V17.8006C15.548 10.8232 18.7058 7.5891 25.5561 7.5891C26.855 7.5891 29.0961 7.84412 30.0128 8.09832V13.7768C29.529 13.726 28.6885 13.7006 27.6447 13.7006C24.2835 13.7006 22.9846 14.974 22.9846 18.2844V20.5H29.6807L28.5303 26.7648H22.9846V40.8499C33.1354 39.624 41.0008 30.9812 41.0008 20.5C41 9.17826 31.8217 0 20.5 0Z" fill="#E4CCFF"/>
</svg>
