<svg width="41" height="29" viewBox="0 0 41 29" fill="none" xmlns="http://www.w3.org/2000/svg">
<path d="M40.5916 6.22207C40.5916 6.22207 40.1912 3.39531 38.958 2.1541C37.3965 0.520508 35.6508 0.5125 34.85 0.416406C29.1164 -2.29105e-07 20.508 0 20.508 0H20.492C20.492 0 11.8836 -2.29105e-07 6.15 0.416406C5.34922 0.5125 3.60352 0.520508 2.04199 2.1541C0.808789 3.39531 0.416406 6.22207 0.416406 6.22207C0.416406 6.22207 0 9.54531 0 12.8605V15.9676C0 19.2828 0.408398 22.6061 0.408398 22.6061C0.408398 22.6061 0.808789 25.4328 2.03398 26.674C3.59551 28.3076 5.64551 28.2516 6.5584 28.4277C9.8416 28.74 20.5 28.8361 20.5 28.8361C20.5 28.8361 29.1164 28.8201 34.85 28.4117C35.6508 28.3156 37.3965 28.3076 38.958 26.674C40.1912 25.4328 40.5916 22.6061 40.5916 22.6061C40.5916 22.6061 41 19.2908 41 15.9676V12.8605C41 9.54531 40.5916 6.22207 40.5916 6.22207ZM16.2639 19.7393V8.21601L27.3387 13.9977L16.2639 19.7393Z" fill="#E4CCFF"/>
</svg>
